<?xml version="1.0" standalone="no"?>
<!DOCTYPE svg PUBLIC "-//W3C//DTD SVG 20010904//EN"
 "http://www.w3.org/TR/2001/REC-SVG-20010904/DTD/svg10.dtd">
<svg version="1.0" xmlns="http://www.w3.org/2000/svg"
 width="780.000000pt" height="780.000000pt" viewBox="0 0 780.000000 780.000000"
 preserveAspectRatio="xMidYMid meet">
<metadata>
Created by potrace 1.11, written by Peter Selinger 2001-2013
</metadata>
<g transform="translate(0.000000,780.000000) scale(0.100000,-0.100000)"
fill="#000000" stroke="none">
<path d="M3795 7770 c-92 -43 -264 -120 -271 -120 -3 0 -32 -13 -65 -30 -33
-16 -60 -29 -62 -29 -1 1 -29 -11 -62 -26 -67 -29 -69 -30 -178 -80 -43 -19
-80 -35 -82 -35 -2 0 -39 -16 -82 -35 -43 -20 -87 -40 -98 -45 -11 -5 -42 -19
-70 -31 -27 -11 -72 -31 -100 -44 -27 -12 -144 -64 -260 -115 -115 -51 -243
-108 -283 -126 -40 -19 -79 -34 -87 -34 -8 0 -15 -4 -15 -10 0 -5 -6 -10 -13
-10 -8 0 -41 -13 -75 -30 -34 -16 -64 -30 -67 -30 -4 0 -63 -26 -160 -70 -22
-10 -139 -62 -260 -115 -121 -54 -233 -103 -250 -110 -126 -56 -165 -74 -202
-90 -34 -15 -44 -26 -58 -64 -9 -25 -23 -58 -31 -73 -8 -15 -14 -29 -14 -30 2
-5 -29 -86 -235 -608 -51 -129 -145 -370 -209 -535 -65 -165 -122 -309 -127
-320 -5 -11 -47 -119 -94 -240 -117 -299 -123 -313 -209 -532 -90 -228 -92
-249 -43 -374 19 -46 52 -131 75 -189 22 -58 46 -118 53 -135 7 -16 13 -32 13
-35 1 -3 28 -72 60 -155 32 -82 83 -213 113 -290 30 -77 79 -201 108 -275 29
-74 106 -270 170 -435 64 -165 141 -361 170 -435 29 -74 81 -207 115 -295 114
-294 90 -257 189 -300 47 -21 109 -48 136 -61 28 -12 230 -102 450 -199 814
-360 923 -408 1080 -477 88 -39 183 -81 210 -93 28 -13 107 -48 178 -79 70
-31 184 -81 255 -112 70 -31 150 -66 177 -79 155 -69 284 -125 290 -125 4 0
87 34 184 76 174 75 215 93 319 140 29 13 54 24 56 24 2 0 25 10 52 22 27 12
51 23 54 23 3 1 36 16 74 33 38 18 70 32 72 32 1 0 81 34 176 76 95 41 189 82
208 91 19 8 49 21 65 28 17 8 50 23 75 33 94 41 288 126 373 163 48 21 90 39
93 39 3 0 33 14 67 31 34 17 63 30 64 30 4 0 76 30 128 54 28 13 79 35 115 50
36 15 84 36 108 46 99 44 133 59 247 109 109 47 146 63 240 105 17 7 53 23 81
35 l52 22 267 691 c146 381 268 697 269 702 2 6 8 24 15 40 7 17 93 242 192
500 99 259 184 479 189 490 16 35 80 210 80 219 0 6 -18 57 -41 115 -67 171
-196 506 -251 646 -76 198 -146 380 -184 478 -19 48 -50 129 -70 180 -19 50
-62 160 -94 242 -32 83 -113 292 -180 465 -67 173 -137 356 -157 407 -35 89
-37 92 -82 111 -124 53 -450 194 -477 207 -17 8 -99 44 -182 79 -148 64 -194
84 -300 132 -29 13 -54 24 -57 24 -2 0 -32 13 -67 29 -35 16 -128 57 -208 91
-80 34 -167 72 -195 85 -95 42 -191 84 -540 235 -192 83 -370 161 -395 172
-25 11 -112 50 -195 85 -82 36 -162 71 -177 78 -53 26 -81 25 -143 -5z"/>
</g>
</svg>
